<svg xmlns="http://www.w3.org/2000/svg" viewBox="0 0 54 54">
  <g id="Group_16" data-name="Group 16" transform="translate(-761 262) rotate(-90)">
    <path id="noun-down-arrow-4915667" d="M222.7,37.534a.793.793,0,0,0-.792.8v4.042a.794.794,0,1,0,1.588,0V38.331a.793.793,0,0,0-.8-.8Zm0,9.635h0a.793.793,0,0,0-.792.8v4.042a.794.794,0,0,0,1.588,0V47.966a.793.793,0,0,0-.8-.8Zm0,9.637a.794.794,0,0,0-.792.791v4.048a.794.794,0,0,0,1.588,0V57.6a.793.793,0,0,0-.8-.791Zm6.15,6.39a.792.792,0,0,0-.58.187l-5.57,4.733-5.572-4.733a.794.794,0,1,0-1.024,1.213l6.086,5.166a.793.793,0,0,0,1.024,0L229.3,64.6a.8.8,0,0,0-.451-1.4Z" transform="translate(12.297 734.258)" fill="#151515"/>
    <g id="Ellipse_7" data-name="Ellipse 7" transform="translate(208 761)" fill="none" stroke="#151515" stroke-width="2">
      <circle cx="27" cy="27" r="27" stroke="none"/>
      <circle cx="27" cy="27" r="26" fill="none"/>
    </g>
  </g>
</svg>
