<!--?xml version="1.0" encoding="UTF-8"?-->
<svg id="uuid-29af5e04-1185-49e1-850a-58f53c23deb1" data-name="Layer 2" xmlns="http://www.w3.org/2000/svg" viewBox="0 0 58.87 59" >
  <defs>
    <style>
      .uuid-752914cb-23a1-4c1a-8736-0d28d199f0f6 {
        fill: #799f4b;
      }
    </style>
  </defs>
  <g id="uuid-3414a687-bd76-4ff9-8468-ec64256ef80f" data-name="play">
    <g id="uuid-2c610a24-9215-43c6-9daf-02c5df81fc12" data-name="Group 32">
      <path id="uuid-5e5867a0-7361-4659-ac51-ec8f130d6fa6" data-name="Path 2401" d="m53.41,22.94l5.24-5.24c.3-.3.3-.79,0-1.09-.3-.3-.79-.3-1.09,0h0l-5.24,5.24-5.24-5.24c-.3-.3-.79-.3-1.09,0-.3.3-.3.79,0,1.09l5.24,5.24-5.24,5.24c-.29.31-.28.8.02,1.09.3.29.77.29,1.07,0l5.24-5.24,5.24,5.24c.31.29.8.27,1.09-.04.27-.3.27-.75,0-1.05l-5.24-5.24Z" class="brand-1"></path>
      <path id="uuid-fbae6595-5128-42a0-8aa4-51785609aebf" data-name="Path 2402" d="m34.1,29.5l5.24-5.24c.3-.3.3-.79,0-1.09-.3-.3-.79-.3-1.09,0l-5.24,5.24-5.24-5.24c-.3-.3-.79-.3-1.09,0-.3.3-.3.79,0,1.09l5.24,5.24-5.24,5.24c-.29.31-.27.8.04,1.09.3.27.75.27,1.05,0l5.24-5.24,5.24,5.24c.31.29.8.27,1.09-.04.27-.3.27-.75,0-1.05l-5.24-5.24Z" class="brand-2"></path>
      <path id="uuid-0f6f82c4-fcbc-455a-8234-9f6f5e19a943" data-name="Path 2400" d="m7.65,6.56L12.88,1.32c.29-.31.28-.8-.03-1.09-.3-.28-.76-.28-1.06,0l-5.24,5.24L1.32.23c-.3-.3-.79-.3-1.09,0-.3.3-.3.79,0,1.09l5.24,5.24L.23,11.79c-.29.31-.27.8.04,1.09.3.27.75.27,1.05,0l5.24-5.24,5.24,5.24c.3.3.79.3,1.09,0,.3-.3.3-.79,0-1.09l-5.24-5.24Z" class="brand-3"></path>
      <path id="uuid-4d7d2e11-de8a-4385-a1ff-c7db44ffddec" data-name="Path 2403" class="uuid-752914cb-23a1-4c1a-8736-0d28d199f0f6 brand-4" d="m14.69,59c-3.98,0-7.21-3.23-7.21-7.21s3.23-7.21,7.21-7.21,7.21,3.23,7.21,7.21h0c0,3.98-3.23,7.21-7.21,7.21Zm0-13.11c-3.26,0-5.9,2.64-5.9,5.9s2.64,5.9,5.9,5.9c3.26,0,5.9-2.64,5.9-5.9h0c0-3.26-2.64-5.9-5.9-5.9Z"></path>
      <path id="uuid-e709ac4a-1ef6-4a8b-9a2e-b1129b423b18" data-name="Path 2404" class="uuid-752914cb-23a1-4c1a-8736-0d28d199f0f6 brand-5" d="m30.12,7c-.17-.17-.41-.23-.63-.17l-6.4,1.71c-.35.09-.56.45-.47.8.03.11.09.22.17.3l1.97,1.97c-6.52,7.75-10.61,18.82-10.61,31.11,0,.36.3.66.66.65.36,0,.65-.29.65-.65,0-11.92,3.94-22.68,10.23-30.18l1.79,1.79c.26.26.67.26.93,0,.08-.08.14-.19.17-.3l1.6-5.96.12-.43c.06-.23,0-.47-.17-.63h0Z"></path>
    </g>
  </g>
</svg>
