<?xml version="1.0" encoding="UTF-8"?>
<svg id="uuid-0750dbe6-93d3-4293-b356-933121acd138" data-name="Layer 2" xmlns="http://www.w3.org/2000/svg" viewBox="0 0 65.63 59">
  <defs>
    <style>
      .uuid-ba9beb43-1611-46fb-b086-c85bcff6ac7f {
        fill: #3687ba;
      }
    </style>
  </defs>
  <g id="uuid-57db268a-1571-4fe8-b9d9-ec4b79795d20" data-name="megaphone">
    <g id="uuid-68748192-0775-4924-b354-426aaa277b86" data-name="Group 33">
      <path id="uuid-51feb099-11e7-4270-8a2e-92bf53ea1b79" data-name="Path 2405" d="m42.52,0c-1.64,0-2.98,1.33-2.98,2.98v2.66s-.09.04-.13.07l-17.2,10.71h-12.5c-2.49,0-4.51,2.02-4.51,4.51v1.6h-3.1c-1.16,0-2.1.94-2.1,2.1v3.69c0,1.16.94,2.1,2.1,2.1h3.1v1.6c0,2.08,1.43,3.89,3.46,4.38l-3.23,17.45c-.17,1.08.36,2.15,1.32,2.67l4.44,2.26c.28.14.59.22.9.22.24,0,.49-.05.71-.14.52-.22.91-.66,1.07-1.2l6.64-21.15h1.7l17.2,10.71s.09.04.13.06v2.67c0,1.65,1.33,2.98,2.98,2.98s2.98-1.33,2.98-2.98h0V2.98c0-1.64-1.33-2.98-2.98-2.98h0ZM5.19,28.62h-3.09c-.17,0-.31-.14-.31-.31v-3.69c0-.17.14-.31.31-.31h3.1v4.32h-.01Zm1.8,3.38v-11.08c0-1.5,1.22-2.72,2.72-2.72h11.86v16.52h-11.86c-1.5,0-2.72-1.22-2.72-2.72h0Zm5.17,25.12s-.03.07-.06.09c-.03,0-.07,0-.1-.02l-4.44-2.26c-.25-.16-.4-.45-.37-.75l3.26-17.66h8.18l-6.48,20.61Zm11.19-22v-17.32l16.19-10.07v37.46l-16.19-10.07Zm20.36,14.82c-.02.66-.57,1.18-1.23,1.16-.63-.02-1.14-.53-1.16-1.16V2.98c-.02-.66.5-1.21,1.16-1.23.66-.02,1.21.5,1.23,1.16,0,.02,0,.05,0,.07v46.96Z"/>
      <path id="uuid-0d0ad87e-560d-4f38-aeae-2dca8d78862c" data-name="Path 2406" class="uuid-ba9beb43-1611-46fb-b086-c85bcff6ac7f" d="m64.74,25.39h-13.38c-.49,0-.89.4-.89.9,0,.49.4.89.89.89h13.38c.49,0,.89-.4.89-.9,0-.49-.4-.89-.89-.89Z"/>
      <path id="uuid-f0cb3c79-9646-49dd-bcda-4019806c9064" data-name="Path 2407" class="uuid-ba9beb43-1611-46fb-b086-c85bcff6ac7f" d="m51.55,10.61c.2,0,.4-.07.55-.19l9.46-7.47c.37-.33.4-.89.07-1.26-.3-.34-.81-.4-1.18-.14l-9.46,7.47c-.39.3-.46.86-.16,1.25.17.22.43.35.71.35h0Z"/>
      <path id="uuid-a0227420-c1bd-4059-ad99-be36190fadb6" data-name="Path 2408" class="uuid-ba9beb43-1611-46fb-b086-c85bcff6ac7f" d="m61.56,49.61l-9.46-7.47c-.37-.33-.93-.3-1.26.07s-.3.93.07,1.26c.03.02.05.05.08.07l9.46,7.47c.4.28.96.18,1.24-.22.26-.37.2-.88-.14-1.18h0Z"/>
      <path id="uuid-a76c0283-2b71-4be5-9e4e-7985aca2614a" data-name="Path 2409" class="uuid-ba9beb43-1611-46fb-b086-c85bcff6ac7f" d="m10.32,23.14l3.45-.18c.49-.04.86-.47.82-.96-.04-.47-.44-.84-.92-.82l-3.45.18c-.49.02-.87.44-.85.94.02.48.42.85.9.85h.05Z"/>
    </g>
  </g>
</svg>