<?xml version="1.0" encoding="UTF-8"?>
<svg id="uuid-08b3293e-5a57-4ef9-a593-eaf611360c9f" data-name="Layer 2" xmlns="http://www.w3.org/2000/svg" viewBox="0 0 61.92 68.84">
  <defs>
    <style>
      .uuid-0121a827-9220-4b60-8dab-79430abf5d85 {
        fill: #df6f1d;
      }

      .uuid-0f27007b-7caa-43c3-aca5-e2b4966d0ea6 {
        fill: #151515;
      }
    </style>
  </defs>
  <g id="uuid-2117b064-abc5-4c71-b169-2825e33f41dd" data-name="lightbulb">
    <g id="uuid-e8265ff1-6b23-4dad-b139-186e460677f2" data-name="Group 34">
      <path id="uuid-ab465110-85c2-408b-be36-71fe144b1b78" data-name="Path 2410" class="uuid-0121a827-9220-4b60-8dab-79430abf5d85" d="m44.17,43.63c3.71-3.52,5.8-8.41,5.78-13.53.06-10.47-8.38-19-18.85-19.06-10.47-.06-19,8.38-19.06,18.85-.03,5.33,2.19,10.43,6.11,14.04.55.51,1.14.99,1.75,1.42l.22,1.47h0s0,.02,0,.03c.02.07.04.14.08.21.02.06.04.11.06.16.04.07.09.13.15.18.03.04.06.08.1.12.07.05.14.09.21.13.04.03.08.05.13.07.12.04.24.07.37.07h.03c.06,0,.11,0,.17-.01h.03l21.43-3.73c.06.03.13.05.2.06.04,0,.08,0,.13,0,.33,0,.64-.15.85-.4.02-.01.02-.03.04-.04s.05-.03.08-.05h0Zm-24.48-1.39c-3.41-3.11-5.35-7.52-5.36-12.14.07-9.2,7.59-16.6,16.79-16.53,9.1.07,16.46,7.43,16.53,16.53.02,4.37-1.73,8.57-4.85,11.63l-20.6,3.59-.12-.8c-.05-.32-.23-.61-.5-.79-.67-.45-1.31-.95-1.9-1.5h0Z"/>
      <path id="uuid-54960ad6-08c2-4f41-88d6-a479a72186f9" data-name="Path 2411" class="uuid-0f27007b-7caa-43c3-aca5-e2b4966d0ea6" d="m40.3,51.83l-17.69,3.07c-.62.11-1.04.7-.93,1.33.1.55.57.95,1.13.95.07,0,.13,0,.2-.02l16.97-2.95.7-.11c.62-.11,1.04-.7.94-1.32-.1-.62-.68-1.04-1.3-.94h0Z"/>
      <path id="uuid-7070dde0-8d44-4781-80ef-09726e95fafd" data-name="Path 2412" class="uuid-0f27007b-7caa-43c3-aca5-e2b4966d0ea6" d="m41.66,46.77l-19.84,3.44c-.62.11-1.04.7-.93,1.33.1.55.57.95,1.13.95.07,0,.13,0,.2-.02l18.5-3.21,1.33-.23c.62-.12,1.02-.73.9-1.35-.12-.6-.68-1-1.28-.91h-.01Z"/>
      <path id="uuid-c43782c5-16c9-4a18-a4f0-79933ed2f801" data-name="Path 2413" class="uuid-0f27007b-7caa-43c3-aca5-e2b4966d0ea6" d="m39.41,56.92s-.08,0-.12,0c-.02,0-.03-.02-.05-.02-.1,0-.21,0-.31,0-.02,0-.04,0-.07,0l-15.47,2.7c-.06.02-.12.04-.18.07-.06.01-.12.03-.18.06-.01,0-.02.02-.03.02-.07.05-.14.1-.2.17-.05.04-.1.08-.14.13-.04.06-.07.13-.1.2-.04.06-.07.13-.09.2-.02.15-.03.3-.02.45,0,.01,0,.03,0,.04.02.09.06.19.1.27.01.03.01.06.03.09,0,0,0,0,0,.01,0,.01.02.02.02.03.64,1.14,1.64,2.03,2.85,2.54.05.53.18,1.05.38,1.54.02.05.05.09.07.13,0,0,0,0,0,.01,1.27,2.81,4.58,4.05,7.38,2.78,1.79-.81,3.02-2.51,3.24-4.46,2.11-.91,3.51-2.96,3.59-5.25l.08-.29c.17-.61-.18-1.24-.79-1.41h0Zm-8.42,9.61c-.77,0-1.51-.27-2.1-.76l4.92-.86c-.59,1-1.66,1.62-2.82,1.62Zm4.15-4.59s-.04.02-.07.03c-.07.03-.14.06-.21.11-.06.03-.12.07-.17.12-.05.05-.1.11-.14.17-.03.03-.06.07-.09.11l-6.73,1.18c-.02-.14-.04-.27-.04-.41v-.19s-.01-.05-.02-.08c0-.08-.02-.15-.05-.23-.02-.07-.04-.14-.07-.2-.07-.12-.16-.24-.27-.34-.05-.04-.11-.08-.17-.12-.07-.04-.14-.07-.21-.1-.03,0-.05-.03-.07-.04-.35-.1-.69-.25-.99-.45l11.85-2.07c-.36,1.22-1.32,2.18-2.55,2.52h0Z"/>
      <path id="uuid-1c6dd66b-93c0-48ea-a315-8df9afab73a4" data-name="Path 2414" class="uuid-0121a827-9220-4b60-8dab-79430abf5d85" d="m31,9.83c.63,0,1.15-.51,1.15-1.15h0V1.18c.02-.63-.48-1.16-1.11-1.18-.63-.02-1.16.48-1.18,1.11,0,.02,0,.05,0,.07v7.5c0,.63.51,1.15,1.15,1.15Z"/>
      <path id="uuid-812cae4c-2527-49af-a759-b653f766b5d4" data-name="Path 2415" class="uuid-0121a827-9220-4b60-8dab-79430abf5d85" d="m46.73,16.3c.3,0,.59-.12.81-.33l5.34-5.3c.45-.45.45-1.17,0-1.62-.45-.45-1.17-.45-1.62,0l-5.34,5.3c-.45.45-.45,1.17,0,1.62.21.22.51.34.81.34h0Z"/>
      <path id="uuid-ae559f1c-77dd-44f1-b553-a23004e22442" data-name="Path 2416" class="uuid-0121a827-9220-4b60-8dab-79430abf5d85" d="m60.81,29.63h-7.55c-.63-.02-1.16.48-1.18,1.11-.02.63.48,1.16,1.11,1.18.02,0,.05,0,.07,0h7.55c.63-.02,1.13-.55,1.11-1.18-.02-.61-.51-1.09-1.11-1.11Z"/>
      <path id="uuid-fcce9b59-0d3d-4bcd-aab9-495a6f3a7a36" data-name="Path 2417" class="uuid-0121a827-9220-4b60-8dab-79430abf5d85" d="m47.54,45.59c-.45-.45-1.18-.44-1.62,0s-.44,1.18,0,1.62l5.34,5.3c.45.45,1.17.44,1.62,0s.44-1.17,0-1.62h0l-5.34-5.3Z"/>
      <path id="uuid-ce4fc5c2-ac67-453f-be20-744e14017efb" data-name="Path 2418" class="uuid-0121a827-9220-4b60-8dab-79430abf5d85" d="m14.45,45.59l-5.34,5.3c-.46.44-.47,1.16-.03,1.62s1.16.47,1.62.03c0,0,.02-.02.02-.02l5.34-5.3c.46-.44.47-1.16.03-1.62s-1.16-.47-1.62-.03c0,0-.02.02-.02.02Z"/>
      <path id="uuid-423590a2-2466-4654-b467-86c8f1bbb2a0" data-name="Path 2419" class="uuid-0121a827-9220-4b60-8dab-79430abf5d85" d="m9.88,30.78c0-.63-.51-1.15-1.15-1.15H1.18c-.63-.02-1.16.48-1.18,1.11s.48,1.16,1.11,1.18c.02,0,.05,0,.07,0h7.55c.63,0,1.15-.51,1.15-1.14h0Z"/>
      <path id="uuid-9e87a50e-ee2d-451a-90c2-44ec53334491" data-name="Path 2420" class="uuid-0121a827-9220-4b60-8dab-79430abf5d85" d="m14.45,15.97c.45.45,1.17.44,1.62,0,.45-.45.44-1.17,0-1.62l-5.34-5.31c-.45-.45-1.18-.44-1.62,0s-.44,1.18,0,1.62h0l5.34,5.31Z"/>
    </g>
  </g>
</svg>