<svg id="uuid-56bf80dc-7904-491b-9a79-2ba4adf9b650" data-name="Layer 2" xmlns="http://www.w3.org/2000/svg" viewBox="0 0 180.62 180.62">
  <defs>
    <style>
      .uuid-0c9a0815-9951-49ea-8325-57850e8ffcfe{fill:#fff}
    </style>
  </defs>
  <path class="uuid-0c9a0815-9951-49ea-8325-57850e8ffcfe" d="M38.9 59.9h29.49c11.69 0 17.81 6.69 17.81 16.02 0 6.22-2.92 11.03-8.01 13.57v.19c6.78 2.17 10.84 7.82 10.84 15.17 0 9.61-6.22 16.68-18.19 16.68H38.9V59.9Zm27.99 24.97c4.99 0 7.35-3.02 7.35-6.88s-1.88-6.88-7.44-6.88H50.97v13.76H66.9Zm1.88 25.54c5.65 0 7.92-3.3 7.92-7.35s-2.83-7.44-7.82-7.44h-17.9v14.79h17.81Z" id="uuid-a8b9aef7-435d-4b2e-a5c6-400b1a136959" data-name="Layer 6"/>
  <path class="uuid-0c9a0815-9951-49ea-8325-57850e8ffcfe" d="M119.9 97.02 96.34 61.4h14.23l15.27 24.88 15.45-24.88h13.95l-23.27 35.34v26.29h-12.06V97.02Z" id="uuid-465e0853-f09d-4377-b81d-55a7f0172a69" data-name="Layer 5"/>
  <path stroke="#fff" stroke-miterlimit="10" stroke-width=".25" fill="#fff" d="M93.67 11.39h.72v158.34h-.72z" id="uuid-450323d8-89af-4559-8fef-3df729d45825" data-name="Layer 4"/>
  <path class="uuid-0c9a0815-9951-49ea-8325-57850e8ffcfe" d="M24.86 47.35C38.88 26.07 62.98 12 90.31 12c43.18 0 78.31 35.13 78.31 78.31 0 8.35-1.33 16.38-3.75 23.93h-44.66v9.26h54.09c4.08-10.28 6.32-21.48 6.32-33.19C180.62 40.51 140.11 0 90.31 0 56.05 0 26.19 19.17 10.89 47.35h13.97Z" id="uuid-00fc58b8-3dbc-4b55-924d-5e43ecee1da2" data-name="Layer 3"/>
  <path class="uuid-0c9a0815-9951-49ea-8325-57850e8ffcfe" d="M153.75 136.14c-14.24 19.66-37.36 32.49-63.44 32.49C47.13 168.63 12 133.5 12 90.32c0-6.04.71-11.91 2.01-17.55h31.96V60H5.24A89.888 89.888 0 0 0 0 90.32c0 49.8 40.51 90.31 90.31 90.31 33.08 0 62.06-17.88 77.79-44.49h-14.35Z" id="uuid-cea831bc-bb63-4fbc-aba0-82ad06346e20" data-name="Layer 2"/>
</svg>
