<?xml version="1.0" encoding="UTF-8"?>
<svg id="uuid-0d404646-47c7-4b6c-8da6-3b7b742e0716" data-name="Layer 2" xmlns="http://www.w3.org/2000/svg" viewBox="0 0 180.62 180.62">
  <defs>
    <style>
      .uuid-b2e7f47d-00ce-4c52-8349-c7110afe2827 {
        stroke: #fff;
        stroke-miterlimit: 10;
        stroke-width: .25px;
      }
    </style>
  </defs>
  <g id="uuid-f9e50a0f-711a-4cff-8a1f-2b79e590cc2d" data-name="Layer 6">
    <path d="m38.9,59.9h29.49c11.69,0,17.81,6.69,17.81,16.02,0,6.22-2.92,11.03-8.01,13.57v.19c6.78,2.17,10.84,7.82,10.84,15.17,0,9.61-6.22,16.68-18.19,16.68h-31.94v-61.63Zm27.99,24.97c4.99,0,7.35-3.02,7.35-6.88s-1.88-6.88-7.44-6.88h-15.83v13.76h15.93Zm1.88,25.54c5.65,0,7.92-3.3,7.92-7.35s-2.83-7.44-7.82-7.44h-17.9v14.79h17.81Z"/>
  </g>
  <g id="uuid-34c31c6a-bee9-4f9e-82a6-c53391d5323f" data-name="Layer 5">
    <path d="m119.9,97.02l-23.56-35.62h14.23l15.27,24.88,15.45-24.88h13.95l-23.27,35.34v26.29h-12.06v-26.01Z"/>
  </g>
  <g id="uuid-3d78adba-7633-4bc3-9360-ed31c909778e" data-name="Layer 4">
    <rect class="uuid-b2e7f47d-00ce-4c52-8349-c7110afe2827" x="93.67" y="11.39" width=".72" height="158.34"/>
  </g>
  <g id="uuid-dbaf7a68-f5b6-4c9d-a74a-be43199dde79" data-name="Layer 3">
    <path d="m24.86,47.35C38.88,26.07,62.98,12,90.31,12c43.18,0,78.31,35.13,78.31,78.31,0,8.35-1.33,16.38-3.75,23.93h-44.66v9.26h54.09c4.08-10.28,6.32-21.48,6.32-33.19C180.62,40.51,140.11,0,90.31,0,56.05,0,26.19,19.17,10.89,47.35h13.97Z"/>
  </g>
  <g id="uuid-800d49ec-c4e4-40e6-9962-1990a134b9df" data-name="Layer 2">
    <path d="m153.75,136.14c-14.24,19.66-37.36,32.49-63.44,32.49-43.18,0-78.31-35.13-78.31-78.31,0-6.04.71-11.91,2.01-17.55h31.96v-12.77H5.24c-3.39,9.48-5.24,19.69-5.24,30.32,0,49.8,40.51,90.31,90.31,90.31,33.08,0,62.06-17.88,77.79-44.49h-14.35Z"/>
  </g>
</svg>
